<?xml version="1.0" encoding="utf-8"?>
<!-- Generator: Adobe Illustrator 21.0.0, SVG Export Plug-In . SVG Version: 6.00 Build 0)  -->
<svg version="1.1" id="Layer_1" xmlns="http://www.w3.org/2000/svg" xmlns:xlink="http://www.w3.org/1999/xlink" x="0px" y="0px"
	 viewBox="0 0 2272 1872" style="enable-background:new 0 0 2272 1872;" xml:space="preserve">
<style type="text/css">
	.st0{fill:#606161;}
	.st1{fill:#4C8896;}
	.st2{fill:#386E77;}
	.st3{fill:#513928;}
	.st4{fill:#EB9963;}
	.st5{fill:#846149;}
	.st6{fill:#916F55;}
	.st7{fill:#684831;}
	.st8{fill:#A87654;}
	.st9{fill:#7F5D44;}
	.st10{fill:#FBB585;}
	.st11{fill:#B5B2B1;}
	.st12{fill:#D3D3D3;}
	.st13{fill:#B86448;}
	.st14{fill:#D8775D;}
	.st15{fill:#A1513D;}
	.st16{fill:#BFBDBB;}
	.st17{fill:#444545;}
	.st18{fill:#5B5755;}
	.st19{fill:#BE614A;}
	.st20{fill:#E2735D;}
	.st21{fill:#EDEAE8;}
	.st22{fill:#CBD6D8;}
	.st23{fill:#B5B3B2;}
	.st24{fill:#6C4C35;}
	.st25{fill:#9F9D9C;}
	.st26{fill:#59422D;}
	.st27{fill:#B8472C;}
	.st28{fill:#9A3722;}
	.st29{fill:#3A3531;}
	.st30{fill:#504944;}
</style>
<g>
	<rect y="1229.9" class="st0" width="2272" height="642.1"/>
	<path class="st1" d="M1061.6,1458.8H1.1v290.4h553.7c59.8,0,108.4,48.5,108.4,108.4v14.4h271.2v-122.7h127.2V1458.8z"/>
	<rect x="1.1" y="1458.8" class="st2" width="1060.5" height="147.2"/>
	<rect y="1229.9" class="st3" width="2272" height="321.1"/>
	<path class="st4" d="M1215,1723.1c-0.4-1.2-0.8-2.4-1.3-3.6s-1-2.3-1.6-3.4c-0.6-1.1-1.3-2.2-2-3.2c-2.8-4.2-6.4-7.8-10.6-10.6
		c-6.2-4.2-13.8-6.7-21.9-6.7h-233c-3.4,0-6.7,0.4-9.8,1.2c-0.6,0.2-1.2,0.3-1.9,0.5c-3.7,1.1-7.1,2.8-10.2,4.9
		c-4.2,2.8-7.8,6.4-10.6,10.6c-0.7,1-1.4,2.1-2,3.2c-0.6,1.1-1.2,2.3-1.6,3.4s-0.9,2.4-1.3,3.6c-1.1,3.7-1.8,7.6-1.8,11.6V1872
		h311.2v-137.3C1216.8,1730.7,1216.2,1726.8,1215,1723.1z"/>
	<g>
		<rect y="1257.7" class="st5" width="2272" height="184.8"/>
		<rect class="st6" width="2272" height="1328.4"/>
	</g>
	<polygon class="st7" points="766.6,1328.4 769.8,1442.6 977.7,1442.6 974.4,1328.4 	"/>
	<polygon class="st7" points="0,1328.4 0,1442.6 132.2,1442.6 146,1328.4 	"/>
	<polygon class="st8" points="1182.2,1328.4 1185.5,1442.6 1393.4,1442.6 1390.1,1328.4 	"/>
	<polygon class="st7" points="350.9,1328.4 354.2,1442.6 562,1442.6 558.7,1328.4 	"/>
	<polygon class="st7" points="2013.6,1328.4 2016.9,1442.6 2224.8,1442.6 2221.5,1328.4 	"/>
	<polygon class="st7" points="1597.9,1328.4 1601.2,1442.6 1809.1,1442.6 1805.8,1328.4 	"/>
	<rect x="1182.2" class="st9" width="207.8" height="1257.7"/>
	<rect x="1597.9" class="st9" width="207.8" height="1257.7"/>
	<rect x="2013.6" class="st9" width="207.8" height="1257.7"/>
	<rect x="766.6" class="st9" width="207.8" height="1257.7"/>
	<rect class="st9" width="146" height="1257.7"/>
	<rect x="350.9" class="st9" width="207.8" height="1257.7"/>
	<line class="st8" x1="1182.2" y1="1328.4" x2="1390.1" y2="1328.4"/>
	<g>
		<rect x="766.6" y="1257.7" class="st9" width="207.8" height="70.6"/>
		<rect x="350.9" y="1257.7" class="st9" width="207.8" height="70.6"/>
		<rect x="1597.9" y="1257.7" class="st9" width="207.8" height="70.6"/>
		<rect y="1257.7" class="st9" width="146" height="70.6"/>
		<rect x="2013.6" y="1257.7" class="st9" width="207.8" height="70.6"/>
	</g>
	<path class="st10" d="M817.1,1408v-264.3c0-66.5,53.9-120.4,120.4-120.4h310.3l71.8,657.4l-8.8,10.5c-39.9,47.8-99,75.4-161.3,75.4
		H938.4L817.1,1408z"/>
	<path class="st4" d="M1310.8,1691.1l8.8-10.5l-23.9-218.5H846.8v33.7l74.8,221.2H1285C1294.2,1709.2,1302.9,1700.6,1310.8,1691.1z"
		/>
	<g>
		<g>
			<g>
				<g>
					<path class="st11" d="M931.8,784.5h-13.9c-38.7,0-70.1,30.6-70.1,68.5v530.3c0,13.7,11.3,24.7,25.3,24.7H1069V784.5H931.8z"/>
				</g>
			</g>
		</g>
		<g>
			<g>
				<g>
					<g>
						<g>
							<path class="st12" d="M1472.2,1680.6h-546c-9.1,0-16.5-7.4-16.5-16.5V927.3c0-9.1,7.4-16.5,16.5-16.5h546
								c9.1,0,16.5,7.4,16.5,16.5v736.8C1488.7,1673.2,1481.3,1680.6,1472.2,1680.6z"/>
						</g>
					</g>
				</g>
				<g>
					<g>
						<g>
							<path class="st11" d="M1488.7,950.9c0-22.2-18.4-40.2-41.1-40.2H950.8c-22.7,0-41.1,18-41.1,40.2v65.5h579.1V950.9z"/>
						</g>
					</g>
				</g>
				<g>
					<g>
						<g>
							<path class="st13" d="M1504.4,984.4H885.2c-8.5,0-15.5-6.9-15.5-15.5V871c0-8.5,6.9-15.5,15.5-15.5h619.2
								c8.5,0,15.5,6.9,15.5,15.5V969C1519.9,977.5,1513,984.4,1504.4,984.4z"/>
						</g>
					</g>
				</g>
				<g>
					<g>
						<g>
							<path class="st14" d="M1481.4,855.6H908.2c-15.3,0-28.5,8.8-34.7,21.5h642.7C1510,864.4,1496.8,855.6,1481.4,855.6z"/>
						</g>
					</g>
				</g>
				<g>
					<g>
						<g>
							<path class="st15" d="M869.7,946.9c0,20.8,17.2,37.6,38.5,37.6h573.2c21.2,0,38.5-16.8,38.5-37.6v-2.5H869.7V946.9z"/>
						</g>
					</g>
				</g>
				<g>
					<g>
						<g>
							<g>
								<path class="st11" d="M1426.7,1087.8H976.6c-3.7,0-6.6-2.9-6.6-6.5c0-3.6,3-6.5,6.6-6.5h450.1c3.7,0,6.6,2.9,6.6,6.5
									C1433.4,1084.9,1430.4,1087.8,1426.7,1087.8z"/>
							</g>
						</g>
					</g>
					<g>
						<g>
							<g>
								<path class="st11" d="M1426.7,1184.6H976.6c-3.7,0-6.6-2.9-6.6-6.5c0-3.6,3-6.5,6.6-6.5h450.1c3.7,0,6.6,2.9,6.6,6.5
									C1433.4,1181.7,1430.4,1184.6,1426.7,1184.6z"/>
							</g>
						</g>
					</g>
					<g>
						<g>
							<g>
								<path class="st11" d="M1426.7,1281.4H976.6c-3.7,0-6.6-2.9-6.6-6.5c0-3.6,3-6.5,6.6-6.5h450.1c3.7,0,6.6,2.9,6.6,6.5
									C1433.4,1278.5,1430.4,1281.4,1426.7,1281.4z"/>
							</g>
						</g>
					</g>
					<g>
						<g>
							<g>
								<path class="st11" d="M1426.7,1378.3H976.6c-3.7,0-6.6-2.9-6.6-6.5c0-3.6,3-6.5,6.6-6.5h450.1c3.7,0,6.6,2.9,6.6,6.5
									C1433.4,1375.4,1430.4,1378.3,1426.7,1378.3z"/>
							</g>
						</g>
					</g>
					<g>
						<g>
							<g>
								<path class="st11" d="M1426.7,1475.1H976.6c-3.7,0-6.6-2.9-6.6-6.5c0-3.6,3-6.5,6.6-6.5h450.1c3.7,0,6.6,2.9,6.6,6.5
									C1433.4,1472.2,1430.4,1475.1,1426.7,1475.1z"/>
							</g>
						</g>
					</g>
					<g>
						<g>
							<g>
								<path class="st11" d="M1426.7,1572H976.6c-3.7,0-6.6-2.9-6.6-6.5c0-3.6,3-6.5,6.6-6.5h450.1c3.7,0,6.6,2.9,6.6,6.5
									C1433.4,1569,1430.4,1572,1426.7,1572z"/>
							</g>
						</g>
					</g>
				</g>
			</g>
		</g>
		<g>
			<g>
				<g>
					<path class="st12" d="M1498.6,999.1H911.1c-13.7,0-23.4-13.1-19.1-25.8l0,0c18.4-54.8,19-113.4,1.6-168.5l-0.9-3
						c-4.7-14.7,7.2-29.5,23.6-29.5h527c30.5,0,55.3,23.1,55.3,51.6V999.1z"/>
				</g>
			</g>
		</g>
		<g>
			<g>
				<g>
					<path class="st16" d="M921.3,872.5c0,0,9.6,64-15.8,125.8c1.8,0.5,3.6,0.8,5.6,0.8h587.5V872.5H921.3z"/>
				</g>
			</g>
		</g>
		<g>
			<g>
				<g>
					<g>
						<path class="st17" d="M1400.7,1146.8c-21.5,0-32.4-3.7-43-7.3c-9.9-3.4-19.2-6.5-38.4-6.5c-19.2,0-28.5,3.2-38.4,6.5
							c-10.6,3.6-21.5,7.3-43,7.3c-21.5,0-32.4-3.7-43-7.3c-9.9-3.4-19.2-6.5-38.4-6.5c-19.1,0-28.5,3.2-38.4,6.5
							c-10.6,3.6-21.5,7.3-43,7.3c-21.5,0-32.4-3.7-43-7.3c-9.9-3.4-19.2-6.5-38.4-6.5c-3.9,0-7.1-3.1-7.1-6.9
							c0-3.8,3.2-6.9,7.1-6.9c21.5,0,32.4,3.7,43,7.3c9.9,3.4,19.2,6.5,38.4,6.5c19.1,0,28.5-3.2,38.4-6.5c10.6-3.6,21.5-7.3,43-7.3
							s32.4,3.7,43,7.3c9.9,3.4,19.2,6.5,38.4,6.5c19.2,0,28.5-3.2,38.4-6.5c10.6-3.6,21.5-7.3,43-7.3c21.5,0,32.4,3.7,43,7.3
							c9.9,3.4,19.2,6.5,38.4,6.5c3.9,0,7.1,3.1,7.1,6.9C1407.7,1143.7,1404.6,1146.8,1400.7,1146.8z"/>
					</g>
				</g>
			</g>
		</g>
		<g>
			<g>
				<g>
					<g>
						<path class="st17" d="M1400.7,1243.7c-21.5,0-32.4-3.7-43-7.3c-9.9-3.4-19.2-6.5-38.4-6.5c-19.2,0-28.5,3.2-38.4,6.5
							c-10.6,3.6-21.5,7.3-43,7.3c-21.5,0-32.4-3.7-43-7.3c-9.9-3.4-19.2-6.5-38.4-6.5c-19.1,0-28.5,3.2-38.4,6.5
							c-10.6,3.6-21.5,7.3-43,7.3c-21.5,0-32.4-3.7-43-7.3c-9.9-3.4-19.2-6.5-38.4-6.5c-3.9,0-7.1-3.1-7.1-6.9
							c0-3.8,3.2-6.9,7.1-6.9c21.5,0,32.4,3.7,43,7.3c9.9,3.4,19.2,6.5,38.4,6.5c19.1,0,28.5-3.2,38.4-6.5c10.6-3.6,21.5-7.3,43-7.3
							s32.4,3.7,43,7.3c9.9,3.4,19.2,6.5,38.4,6.5c19.2,0,28.5-3.2,38.4-6.5c10.6-3.6,21.5-7.3,43-7.3c21.5,0,32.4,3.7,43,7.3
							c9.9,3.4,19.2,6.5,38.4,6.5c3.9,0,7.1,3.1,7.1,6.9C1407.7,1240.6,1404.6,1243.7,1400.7,1243.7z"/>
					</g>
				</g>
			</g>
		</g>
		<g>
			<g>
				<g>
					<g>
						<path class="st17" d="M1400.7,1340.6c-21.5,0-32.4-3.7-43-7.3c-9.9-3.4-19.2-6.5-38.4-6.5c-19.2,0-28.5,3.2-38.4,6.5
							c-10.6,3.6-21.5,7.3-43,7.3c-21.5,0-32.4-3.7-43-7.3c-9.9-3.4-19.2-6.5-38.4-6.5c-19.1,0-28.5,3.2-38.4,6.5
							c-10.6,3.6-21.5,7.3-43,7.3c-21.5,0-32.4-3.7-43-7.3c-9.9-3.4-19.2-6.5-38.4-6.5c-3.9,0-7.1-3.1-7.1-6.9s3.2-6.9,7.1-6.9
							c21.5,0,32.4,3.7,43,7.3c9.9,3.4,19.2,6.5,38.4,6.5c19.1,0,28.5-3.2,38.4-6.5c10.6-3.6,21.5-7.3,43-7.3s32.4,3.7,43,7.3
							c9.9,3.4,19.2,6.5,38.4,6.5c19.2,0,28.5-3.2,38.4-6.5c10.6-3.6,21.5-7.3,43-7.3c21.5,0,32.4,3.7,43,7.3
							c9.9,3.4,19.2,6.5,38.4,6.5c3.9,0,7.1,3.1,7.1,6.9C1407.7,1337.5,1404.6,1340.6,1400.7,1340.6z"/>
					</g>
				</g>
			</g>
		</g>
		<g>
			<g>
				<g>
					<g>
						<path class="st17" d="M1400.7,1437.5c-21.5,0-32.4-3.7-43-7.3c-9.9-3.4-19.2-6.5-38.4-6.5c-19.2,0-28.5,3.2-38.4,6.5
							c-10.6,3.6-21.5,7.3-43,7.3c-21.5,0-32.4-3.7-43-7.3c-9.9-3.4-19.2-6.5-38.4-6.5c-19.1,0-28.5,3.2-38.4,6.5
							c-10.6,3.6-21.5,7.3-43,7.3c-21.5,0-32.4-3.7-43-7.3c-9.9-3.4-19.2-6.5-38.4-6.5c-3.9,0-7.1-3.1-7.1-6.9
							c0-3.8,3.2-6.9,7.1-6.9c21.5,0,32.4,3.7,43,7.3c9.9,3.4,19.2,6.5,38.4,6.5c19.1,0,28.5-3.2,38.4-6.5c10.6-3.6,21.5-7.3,43-7.3
							s32.4,3.7,43,7.3c9.9,3.4,19.2,6.5,38.4,6.5c19.2,0,28.5-3.2,38.4-6.5c10.6-3.6,21.5-7.3,43-7.3c21.5,0,32.4,3.7,43,7.3
							c9.9,3.4,19.2,6.5,38.4,6.5c3.9,0,7.1,3.1,7.1,6.9C1407.7,1434.4,1404.6,1437.5,1400.7,1437.5z"/>
					</g>
				</g>
			</g>
		</g>
		<g>
			<g>
				<g>
					<g>
						<path class="st17" d="M1400.7,1534.4c-21.5,0-32.4-3.7-43-7.3c-9.9-3.4-19.2-6.5-38.4-6.5c-19.2,0-28.5,3.2-38.4,6.5
							c-10.6,3.6-21.5,7.3-43,7.3c-21.5,0-32.4-3.7-43-7.3c-9.9-3.4-19.2-6.5-38.4-6.5c-19.1,0-28.5,3.2-38.4,6.5
							c-10.6,3.6-21.5,7.3-43,7.3c-21.5,0-32.4-3.7-43-7.3c-9.9-3.4-19.2-6.5-38.4-6.5c-3.9,0-7.1-3.1-7.1-6.9
							c0-3.8,3.2-6.9,7.1-6.9c21.5,0,32.4,3.7,43,7.3c9.9,3.4,19.2,6.5,38.4,6.5c19.1,0,28.5-3.2,38.4-6.5c10.6-3.6,21.5-7.3,43-7.3
							s32.4,3.7,43,7.3c9.9,3.4,19.2,6.5,38.4,6.5c19.2,0,28.5-3.2,38.4-6.5c10.6-3.6,21.5-7.3,43-7.3c21.5,0,32.4,3.7,43,7.3
							c9.9,3.4,19.2,6.5,38.4,6.5c3.9,0,7.1,3.1,7.1,6.9C1407.7,1531.3,1404.6,1534.4,1400.7,1534.4z"/>
					</g>
				</g>
			</g>
		</g>
		<g>
			<path class="st10" d="M1790.6,889.3l-226.7,36.9c-19.5,3.2-34.8,18.3-38.3,37.7l-24.9,139.5l-8.3,44.9l62.1-21l46.1-61.4
				L1790.6,889.3z"/>
			<path class="st4" d="M1562,1055.7l-21.5,44.6l122.6-122.6l-4.8,1.1C1616.3,988.5,1580.8,1016.8,1562,1055.7z"/>
			<polyline class="st10" points="1402.5,1335.9 1353.6,1287.6 1328.1,1360 			"/>
			<path class="st18" d="M1342.7,1342.8c-1.2,0.9,0-8.1,0-8.1l-5.9,0.5l-8.8,24.9l30.9-10v-7.1
				C1359,1342.9,1343.9,1341.9,1342.7,1342.8z"/>
			<path class="st19" d="M1360.3,1330.2L1360.3,1330.2c-13.7-13.7-13.7-36,0-49.7l539-539c13.7-13.7,36-13.7,49.7,0l0,0
				c13.7,13.7,13.7,36,0,49.7l-539,539C1396.3,1343.9,1374.1,1343.9,1360.3,1330.2z"/>
			<path class="st20" d="M1920.2,765.5l-566.3,555.9c1.6,3.2,3.8,6.1,6.4,8.8c2,2,4.1,3.6,6.4,5l566.8-558.8L1920.2,765.5z"/>
			<path class="st20" d="M1377.6,1339.6c11.3,2.5,23.6-0.6,32.4-9.4l532.1-532.1l-7-5.7L1377.6,1339.6z"/>
			<path class="st20" d="M1910.6,735.2l-269.1,264.1l-281.2,281.2c-8.4,8.4-11.6,20-9.8,30.9l573.3-565.3L1910.6,735.2z"/>
			<path class="st10" d="M1427.2,1230.5l106.1,31.9c9,2.7,18.3,4.1,27.6,4.1l0,0c81.5,0,159.2,34,214.8,93.6
				c36.2,38.8,77.1,76.2,104.5,81.7c36.8,7.4,93.7-1.7,131.7-9.6c24.5-5.1,44.6-22.4,53.3-45.9c22.8-61.5-6.6-336.8-143.7-484.8
				c-21.9-23.6-58.7-24.9-81.9-2.6l-185.1,178.7c0,0-72.5,55.8-109.8,70.9c-23.3,9.4-82.1,2-120.1,15.7
				C1393.3,1175.4,1395.1,1220.9,1427.2,1230.5z"/>
			<path class="st4" d="M2026.7,1221.4c-57.6,63.6-140,104.1-225.5,110.9c-18.9,1.5-38.1,1.3-56.9-1.4c11.1,8.9,21.6,18.6,31.4,29.1
				c36.2,38.8,77.1,76.2,104.5,81.7c36.8,7.4,93.7-1.7,131.7-9.6c24.5-5.1,44.6-22.4,53.3-45.9c11-29.8,9.8-109.9-10-201.3
				C2046.7,1197.7,2037.1,1209.9,2026.7,1221.4z"/>
			<path class="st4" d="M1774.7,987.3c1-3.4,70.5-57.8,75.7-98.1c-1.9,1.3-3.7,2.8-5.4,4.5l-190.3,183.7c0,0-72.5,55.8-109.8,70.9
				c-23.3,9.4-82.1,2-120.1,15.7c-15.7,5.7-23.1,19.7-22.7,33.6c39.2-3.5,112.6-12.7,164.6-35.3
				C1641.1,1130.3,1773.5,991.5,1774.7,987.3z"/>
		</g>
	</g>
	<path class="st21" d="M2272,1541l-113-211c-9.7-18.1-28.5-29.3-49-29.3h-75.5c-81.8,0-158.3,40.7-204,108.6l-43.2,64.3
		c-11.5,17.1-12.6,39.1-2.9,57.2l182.8,341.2H2272V1541z"/>
	<path class="st22" d="M2196.9,1400.7L2159,1330c-9.7-18.1-28.5-29.3-49-29.3h-75.5c-81.8,0-158.3,40.7-204,108.6l-43.2,64.3
		c-11.5,17.1-12.6,39.1-2.9,57.2l34.2,63.9C1868,1507.5,1985.4,1358.3,2196.9,1400.7z"/>
	<circle class="st23" cx="1962.3" cy="1612.9" r="53.9"/>
	<path class="st10" d="M772.5,1534.4v-126.3c0-28.1,15.5-54,40.3-67.2c43.6-23.1,110.4-66.4,135.4-124.9c0,0,95.3,42.5,28.3,149.2
		l-67,96.8c0,0,108.4,158.4,90.8,264.8S747.8,1794.8,772.5,1534.4z"/>
	<path class="st4" d="M909.6,1462.1l67-96.8c67-106.7-28.3-149.2-28.3-149.2c-0.4,1-0.9,2-1.3,3c19.5,66.6,1.8,142.9-45.5,193.8
		c-9.9,10.7-21.2,20.6-28,33.5c-14.4,27.6-4.7,61,5.3,90.5c11.3,33.6,22.6,67.2,34,100.8c10.1,30,20.3,60.4,23.2,92
		c1.6,17.4,0.7,35.4-3.5,52.3c34.5-1.8,62.4-21.1,68-55.1C1018,1620.5,909.6,1462.1,909.6,1462.1z"/>
	<rect x="866.2" y="1794" class="st22" width="409.2" height="78"/>
	<rect class="st10" width="946.4" height="181"/>
	<path class="st24" d="M1256.4,274.2H0V130.9h970l557.9-109.6v0C1517.7,163.8,1399.2,274.2,1256.4,274.2z"/>
	<rect y="117.9" class="st4" width="946.4" height="63.1"/>
	<ellipse class="st24" cx="428.1" cy="715.4" rx="292.7" ry="155.6"/>
	<ellipse class="st25" cx="341.9" cy="715.4" rx="167.2" ry="101.7"/>
	<path class="st16" d="M341.9,794.3c-86,0-156.8-39.5-166.2-90.3c-0.7,3.7-1.1,7.5-1.1,11.4c0,56.1,74.9,101.7,167.2,101.7
		s167.2-45.5,167.2-101.7c0-3.9-0.4-7.7-1.1-11.4C498.7,754.8,427.9,794.3,341.9,794.3z"/>
	<path class="st16" d="M341.5,752.4L341.5,752.4c-105.4,0-190.8-85.4-190.8-190.8V471c0-15.7,12.8-28.5,28.5-28.5h324.6
		c15.7,0,28.5,12.8,28.5,28.5v90.6C532.3,667,446.9,752.4,341.5,752.4z"/>
	<g>
		<ellipse class="st12" cx="341.5" cy="464.2" rx="190.8" ry="116"/>
		<ellipse class="st16" cx="341.9" cy="456.9" rx="167.2" ry="101.7"/>
		<path class="st26" d="M341.9,558.5c72,0,133.4-27.7,156.9-66.5c-23.5-38.8-84.9-66.5-156.9-66.5S208.5,453.2,184.9,492
			C208.5,530.8,269.8,558.5,341.9,558.5z"/>
	</g>
	<path class="st24" d="M1190,49.5c-7.6,0-14.6,2.4-20.4,6.4l0,0c0,0,0,0,0,0c-0.6,0.4-1.1,0.8-1.7,1.2c0,0,0,0-0.1,0
		c-1.6,1.3-3.2,2.7-4.5,4.3c0,0,0,0,0,0c-0.4,0.5-0.9,1-1.3,1.5c0,0.1-0.1,0.1-0.1,0.2c-0.4,0.5-0.8,1-1.1,1.5
		c0,0.1-0.1,0.1-0.1,0.2c-0.8,1.1-1.5,2.3-2.1,3.5c0,0,0,0.1-0.1,0.1c-0.3,0.5-0.5,1.1-0.8,1.6c-0.1,0.1-0.1,0.3-0.2,0.4
		c-0.2,0.5-0.4,0.9-0.6,1.4c-0.1,0.2-0.1,0.3-0.2,0.5c-0.2,0.5-0.4,1-0.6,1.6c0,0.1-0.1,0.2-0.1,0.3c-0.2,0.6-0.4,1.3-0.6,2
		c0,0.1,0,0.2-0.1,0.3c-0.1,0.6-0.3,1.1-0.4,1.7c0,0.2-0.1,0.4-0.1,0.6c-0.1,0.5-0.2,0.9-0.2,1.4c0,0.2-0.1,0.5-0.1,0.7
		c-0.1,0.5-0.1,0.9-0.1,1.4c0,0.2,0,0.4,0,0.6c0,0.7-0.1,1.4-0.1,2.1v337.4c0,19.7,15.9,35.6,35.6,35.6h1046.4
		c19.7,0,35.6-15.9,35.6-35.6v0v-23.3V49.5H1190z"/>
	<g>
		<g>
			<path class="st27" d="M2236.4,408.6H1190c-19.7,0-35.6-15.9-35.6-35.6V35.6c0-19.7,15.9-35.6,35.6-35.6h1082v373
				C2272,392.7,2256.1,408.6,2236.4,408.6z"/>
			<path class="st28" d="M2236.4,385.3H1204.7c-19.7,0-35.6-15.9-35.6-35.6V12.3c0-2,0.2-4,0.5-5.9c-9.2,6.4-15.2,17.1-15.2,29.2
				V373c0,19.7,15.9,35.6,35.6,35.6h1046.4c19.7,0,35.6-15.9,35.6-35.6v-23.3C2272,369.4,2256.1,385.3,2236.4,385.3z"/>
		</g>
		<g>
			<g>
				<rect x="1363.2" y="12.6" class="st28" width="28.6" height="241.2"/>
				<rect x="1359.7" y="322.3" class="st28" width="34.7" height="34.7"/>
			</g>
			<g>
				<rect x="1496.7" y="12.6" class="st28" width="28.6" height="241.2"/>
				<rect x="1493.2" y="322.3" class="st28" width="34.7" height="34.7"/>
			</g>
			<g>
				<rect x="1630.2" y="12.6" class="st28" width="28.6" height="241.2"/>
				<rect x="1626.7" y="322.3" class="st28" width="34.7" height="34.7"/>
			</g>
			<g>
				<rect x="1763.7" y="12.6" class="st28" width="28.6" height="241.2"/>
				<rect x="1760.2" y="322.3" class="st28" width="34.7" height="34.7"/>
			</g>
			<g>
				<rect x="1897.2" y="12.6" class="st28" width="28.6" height="241.2"/>
				<rect x="1893.7" y="322.3" class="st28" width="34.7" height="34.7"/>
			</g>
			<g>
				<rect x="2030.7" y="12.6" class="st28" width="28.6" height="241.2"/>
				<rect x="2027.2" y="322.3" class="st28" width="34.7" height="34.7"/>
			</g>
			<g>
				<rect x="2164.2" y="12.6" class="st28" width="28.6" height="241.2"/>
				<rect x="2160.7" y="322.3" class="st28" width="34.7" height="34.7"/>
			</g>
		</g>
	</g>
	<g>
		<path class="st10" d="M946.4,181c0,0,132.2,15.4,211.2-11.7c79-27.1,213.3-0.2,232.5-38.4s-118.8-57.9-188-55.4
			c0,0,183.4,7,289.6,0c39.7-2.6,70.6-35.7,70.6-75.5v0H946.4V181z"/>
		<path class="st4" d="M946.4,130.9V181c0,0,132.2,15.4,211.2-11.7c79-27.1,213.3-0.2,232.5-38.4c1.9-3.7,2.2-7.3,1.3-10.7
			l-241.2,10.7H946.4z"/>
		<path class="st4" d="M1175.9,48.4c-16.6,0-30.1,13.5-30.1,30.1v0H1270c-4.7-0.5-9.4-0.9-14-1.3c-32.4-0.8-53.9-1.6-53.9-1.6
			c15.4-0.5,34.2,0,53.9,1.6c21.7,0.5,48.3,1,76.8,1.3h0.1h-0.1c53.5,0.5,113.3,0.1,159-3c21.4-1.4,40.3-11.7,53.1-27.1H1175.9z"/>
	</g>
	<path class="st17" d="M945.1,193.5h-46.3c-18,0-32.6-14.6-32.6-32.6V0h111.4v160.9C977.7,178.9,963.1,193.5,945.1,193.5z"/>
	<path class="st29" d="M2272,664.2h-214.5c-38.7,0-70.2-31.4-70.2-70.2V166.9c0-38.7,31.4-70.2,70.2-70.2H2272V664.2z"/>
	<path class="st29" d="M2272,664.2h-214.5c-38.7,0-70.2-31.4-70.2-70.2V166.9c0-38.7,31.4-70.2,70.2-70.2H2272V664.2z"/>
	<path class="st12" d="M2224.9,459.7c-20.9,0-40.9-8.6-49.5-14.1l-8.2,23.4c11,7.2,33,15.1,58,15.1c18.8,0,34.4-3.9,46.8-10.4v-39.9
		C2266.2,447.5,2252.2,459.7,2224.9,459.7z"/>
	<path class="st12" d="M2175.8,270.5l7.9,22c9.6-6.9,26.8-14.8,44.6-14.8c27.8,0,39.1,15.8,39.1,33.7c0,26.4-27.8,37.8-49.8,37.8
		h-16.8v22.7h16.8c23.4,0,46,8.6,54.4,28v-35.2c-4.8-2.2-9.9-3.8-15.2-4.8v-0.7c5.7-2,10.7-4.5,15.2-7.3v-89.7
		c-9.7-5.4-22.3-8.7-37.9-8.7C2210.1,253.3,2187.4,261.9,2175.8,270.5z"/>
	<path class="st30" d="M2002.3,181.9c0-38.7,31.4-70.2,70.2-70.2H2272v-15h-214.5c-38.7,0-70.2,31.4-70.2,70.2V594
		c0,23.2,11.3,43.8,28.6,56.5c-8.6-11.6-13.6-26-13.6-41.5V181.9z"/>
	<path class="st24" d="M2234.8,873.6c-89.7,0-162.5,47.2-162.5,105.4c0,58.2,72.8,105.4,162.5,105.4c12.8,0,25.2-1,37.2-2.8V876.3
		C2260.1,874.5,2247.6,873.6,2234.8,873.6z"/>
	<path class="st30" d="M2234.8,855.6c-89.7,0-162.5,47.2-162.5,105.4c0,58.2,72.8,105.4,162.5,105.4c12.8,0,25.2-1,37.2-2.8V858.3
		C2260.1,856.5,2247.6,855.6,2234.8,855.6z"/>
	<path class="st29" d="M2078.7,936c0-1.6,0.1-3.1,0.2-4.7c-4.2,9.4-6.5,19.4-6.5,29.7c0,58.2,72.8,105.4,162.5,105.4
		c12.8,0,25.2-1,37.2-2.8v-24.1c-10,1.2-20.3,1.9-30.8,1.9C2151.4,1041.4,2078.7,994.2,2078.7,936z"/>
	<path class="st29" d="M2246.7,935.8L2246.7,935.8c-14,0-25.3-11.3-25.3-25.3V628.9h50.5v281.7
		C2272,924.5,2260.7,935.8,2246.7,935.8z"/>
</g>
</svg>
